<svg version="1.1" xmlns="http://www.w3.org/2000/svg" xmlns:xlink="http://www.w3.org/1999/xlink"
     width="41" height="100" viewBox="0 0 41 100">
    <defs>
        <g id="icon-plus">
            <path class="path1"
                  d="M0.562 11.046v-1.99q0-0.415 0.29-0.705t0.705-0.29h4.311v-4.311q0-0.415 0.29-0.705t0.705-0.29h1.99q0.415 0 0.705 0.29t0.29 0.705v4.311h4.311q0.415 0 0.705 0.29t0.29 0.705v1.99q0 0.415-0.29 0.705t-0.705 0.29h-4.311v4.311q0 0.415-0.29 0.705t-0.705 0.29h-1.99q-0.415 0-0.705-0.29t-0.29-0.705v-4.311h-4.311q-0.415 0-0.705-0.29t-0.29-0.705z"></path>
        </g>
        <g id="icon-laptop">
            <path class="path1"
                  d="M1.476 15.235v-0.924h18.477v0.924q0 0.385-0.452 0.654t-1.087 0.269h-15.397q-0.635 0-1.087-0.269t-0.452-0.654zM3.939 12.156v-6.775q0-0.635 0.452-1.087t1.087-0.452h10.47q0.635 0 1.087 0.452t0.452 1.087v6.775q0 0.635-0.452 1.087t-1.087 0.452h-10.47q-0.635 0-1.087-0.452t-0.452-1.087zM5.171 12.156q0 0.125 0.091 0.217t0.217 0.091h10.47q0.125 0 0.217-0.091t0.091-0.217v-6.775q0-0.125-0.091-0.217t-0.217-0.091h-10.47q-0.125 0-0.217 0.091t-0.091 0.217v6.775zM9.79 15.081q0 0.154 0.154 0.154h1.54q0.154 0 0.154-0.154t-0.154-0.154h-1.54q-0.154 0-0.154 0.154z"></path>
        </g>
        <g id="icon-tablet">
            <path class="path1"
                  d="M0 16.071v-12.143q0-0.737 0.525-1.261t1.261-0.525h9.286q0.737 0 1.261 0.525t0.525 1.261v12.143q0 0.737-0.525 1.261t-1.261 0.525h-9.286q-0.737 0-1.261-0.525t-0.525-1.261zM1.429 14.643q0 0.145 0.106 0.251t0.251 0.106h9.286q0.145 0 0.251-0.106t0.106-0.251v-10.714q0-0.145-0.106-0.251t-0.251-0.106h-9.286q-0.145 0-0.251 0.106t-0.106 0.251v10.714zM5.714 16.429q0 0.29 0.212 0.502t0.502 0.212 0.502-0.212 0.212-0.502-0.212-0.502-0.502-0.212-0.502 0.212-0.212 0.502z"></path>
        </g>
        <g id="icon-mobile-phone">
            <path class="path1"
                  d="M0 15.714v-11.429q0-0.58 0.424-1.004t1.004-0.424h5.714q0.58 0 1.004 0.424t0.424 1.004v11.429q0 0.58-0.424 1.004t-1.004 0.424h-5.714q-0.58 0-1.004-0.424t-0.424-1.004zM1.071 13.929q0 0.145 0.106 0.251t0.251 0.106h5.714q0.145 0 0.251-0.106t0.106-0.251v-7.857q0-0.145-0.106-0.251t-0.251-0.106h-5.714q-0.145 0-0.251 0.106t-0.106 0.251v7.857zM3.214 4.464q0 0.179 0.179 0.179h1.786q0.179 0 0.179-0.179t-0.179-0.179h-1.786q-0.179 0-0.179 0.179zM3.393 15.714q0 0.368 0.262 0.631t0.631 0.262 0.631-0.262 0.262-0.631-0.262-0.631-0.631-0.262-0.631 0.262-0.262 0.631z"></path>
        </g>
        <g id="icon-twitter">
            <path class="path1"
                  d="M0.491 15.525q0.391 0.045 0.871 0.045 2.511 0 4.475-1.54-1.172-0.022-2.098-0.72t-1.272-1.78q0.368 0.056 0.681 0.056 0.48 0 0.949-0.123-1.25-0.257-2.070-1.244t-0.82-2.294v-0.045q0.759 0.424 1.629 0.458-0.737-0.491-1.172-1.283t-0.435-1.719q0-0.982 0.491-1.819 1.35 1.663 3.287 2.662t4.146 1.11q-0.089-0.424-0.089-0.826 0-1.496 1.055-2.55t2.55-1.055q1.563 0 2.634 1.138 1.217-0.234 2.288-0.871-0.413 1.283-1.585 1.987 1.038-0.112 2.076-0.558-0.748 1.094-1.808 1.864 0.011 0.156 0.011 0.469 0 1.451-0.424 2.896t-1.289 2.773-2.059 2.349-2.879 1.629-3.605 0.608q-3.025 0-5.536-1.618z"></path>
        </g>
        <g id="icon-facebook-square">
            <path class="path1" 
            d="M16.6479735,2.56778663 C16.6447807,2.56525164 16.6422264,2.56192446 16.6382354,2.56002322 L16.6324883,2.55717135 L11.5926278,0.0562450949 C11.5586243,0.039292348 11.5228648,0.0278848921 11.4866263,0.0186955527 C11.4411287,0.00712965991 11.3946732,0 11.3480581,0 C11.1550523,0 10.9630044,0.0961711904 10.8589186,0.263797417 L7.95744681,4.94338931 L11.5986941,10.8156941 L16.6634586,2.64763882 C16.6802209,2.62038767 16.6722389,2.58679905 16.6479735,2.56778663" id="Fill-53"></path>
            <polyline id="Fill-54" points="6.14893617 3.94871795 6.14893617 9.27552452 10.9196423 11.6428885 6.14893617 3.94871795"></polyline>
            <path d="M11.5744681,11.7742327 L15.5014725,13.7228479 C16.0124827,13.9765054 16.4267506,13.7988976 16.4267506,13.3264388 L16.4267506,3.94871795 L11.5744681,11.7742327" id="Fill-55"></path>
            <path d="M5.53905735,2.50758061 L0.616852108,0.0649591236 C0.527932174,0.0209136691 0.443322542,0 0.366694951,0 C0.151179851,0 0,0.165566547 0,0.44330641 L0,10.99045 C0,11.2727845 0.208171622,11.6070863 0.462639081,11.7333605 L4.79800468,13.8846166 C4.90911469,13.9397526 5.01495655,13.9658947 5.1105814,13.9658947 C5.38005509,13.9658947 5.56906982,13.7589761 5.56906982,13.4116825 L5.56906982,2.55558699 C5.56906982,2.53530706 5.55741604,2.51661151 5.53905735,2.50758061" id="Fill-56"></path>        </g>
        <g id="icon-github">
            <path class="path1"
                  d="M0.769 10q0-2.512 1.238-4.633t3.359-3.359 4.633-1.238 4.633 1.238 3.359 3.359 1.238 4.633q0 3.017-1.761 5.427t-4.549 3.335q-0.325 0.060-0.475-0.084t-0.15-0.361v-2.536q0-1.166-0.625-1.707 0.685-0.072 1.232-0.216t1.13-0.469 0.974-0.799 0.637-1.262 0.246-1.809q0-1.454-0.95-2.476 0.445-1.094-0.096-2.452-0.337-0.108-0.974 0.132t-1.106 0.529l-0.457 0.288q-1.118-0.313-2.308-0.313t-2.308 0.313q-0.192-0.132-0.511-0.325t-1.004-0.463-1.034-0.162q-0.529 1.358-0.084 2.452-0.95 1.022-0.95 2.476 0 1.022 0.246 1.803t0.631 1.262 0.968 0.805 1.13 0.469 1.232 0.216q-0.481 0.433-0.589 1.238-0.252 0.12-0.541 0.18t-0.685 0.060-0.787-0.258-0.667-0.751q-0.228-0.385-0.583-0.625t-0.595-0.288l-0.24-0.036q-0.252 0-0.349 0.054t-0.060 0.138 0.108 0.168 0.156 0.144l0.084 0.060q0.264 0.12 0.523 0.457t0.379 0.613l0.12 0.276q0.156 0.457 0.529 0.739t0.805 0.361 0.835 0.084 0.667-0.042l0.276-0.048q0 0.457 0.006 1.070t0.006 0.649q0 0.216-0.156 0.361t-0.481 0.084q-2.788-0.925-4.549-3.335t-1.761-5.427z"></path>
        </g>
        <g id="icon-dribbble">
            <path class="path1"
                  d="M1.429 10q0-2.333 1.15-4.302t3.119-3.119 4.302-1.15 4.302 1.15 3.119 3.119 1.15 4.302-1.15 4.302-3.119 3.119-4.302 1.15-4.302-1.15-3.119-3.119-1.15-4.302zM2.679 10q0 1.384 0.491 2.64t1.384 2.249q0.558-0.993 1.378-1.858t1.59-1.39 1.456-0.904 1.11-0.536l0.413-0.145q0.045-0.011 0.145-0.039t0.145-0.050q-0.234-0.547-0.592-1.239-3.471 1.038-7.511 1.038-0.011 0.078-0.011 0.234zM2.835 8.493q3.371 0 6.763-0.893-1.339-2.377-2.723-4.219-1.54 0.725-2.612 2.076t-1.429 3.036zM5.335 15.647q2.054 1.674 4.665 1.674 1.473 0 2.857-0.58-0.469-2.69-1.563-5.558h-0.022l-0.022 0.011q-0.179 0.067-0.48 0.184t-1.127 0.547-1.529 0.915-1.462 1.278-1.15 1.652zM8.225 2.902q0.011-0.011 0.022-0.011-0.011 0-0.022 0.011zM8.27 2.891q1.462 1.897 2.746 4.263 0.77-0.29 1.451-0.675t1.077-0.686 0.731-0.636 0.419-0.452l0.14-0.195q-2.065-1.83-4.833-1.83-0.848 0-1.73 0.212zM11.574 8.248q0.279 0.592 0.491 1.060 0.022 0.067 0.073 0.195t0.084 0.184q0.402-0.056 0.831-0.078t0.82-0.022 0.77 0.017 0.714 0.045 0.631 0.061 0.536 0.073 0.407 0.067 0.279 0.050l0.112 0.022q-0.033-2.589-1.663-4.576l-0.011 0.011q-0.1 0.134-0.212 0.273t-0.485 0.497-0.792 0.675-1.116 0.725-1.468 0.72zM12.667 10.837q0.971 2.667 1.429 5.234 1.239-0.837 2.065-2.115t1.071-2.796q-2.344-0.67-4.565-0.324z"></path>
        </g>
        <g id="icon-instagram">
            <path class="path1"
                  d="M1.429 16.373v-12.746q0-0.904 0.647-1.551t1.551-0.647h12.746q0.904 0 1.551 0.647t0.647 1.551v12.746q0 0.904-0.647 1.551t-1.551 0.647h-12.746q-0.904 0-1.551-0.647t-0.647-1.551zM3.337 15.915q0 0.29 0.195 0.485t0.485 0.195h11.931q0.279 0 0.48-0.195t0.201-0.485v-7.232h-1.507q0.223 0.703 0.223 1.462 0 1.406-0.714 2.595t-1.942 1.881-2.679 0.692q-2.199 0-3.761-1.512t-1.563-3.655q0-0.759 0.223-1.462h-1.574v7.232zM6.574 9.967q0 1.384 1.010 2.36t2.427 0.977q1.429 0 2.439-0.977t1.010-2.36-1.010-2.36-2.439-0.977q-1.417 0-2.427 0.977t-1.010 2.36zM13.147 5.949q0 0.324 0.223 0.547t0.547 0.223h1.942q0.324 0 0.547-0.223t0.223-0.547v-1.842q0-0.313-0.223-0.541t-0.547-0.229h-1.942q-0.324 0-0.547 0.229t-0.223 0.541v1.842z"></path>
        </g>
    </defs>
</svg>
