<svg version="1.1" xmlns="http://www.w3.org/2000/svg">

    <symbol id="Logo" viewBox="0 0 270 60">


<g id="Logo-symbol">
	<g id="Logo-symbol_x5F_2">
		<path fill="#F49A23" d="M26,46c-0.7,0-1.4-0.4-1.7-1c-0.6-1-0.2-2.2,0.7-2.7l12-7c1-0.6,2.2-0.2,2.7,0.7c0.6,1,0.2,2.2-0.7,2.7
			l-12,7C26.7,45.9,26.3,46,26,46z"/>
	</g>
	<g id="Logo-symbol_x5F_1">
		<path fill="#EA6963" d="M26,46c-1.1,0-2-0.9-2-2V30c0-1.1,0.9-2,2-2c1.1,0,2,0.9,2,2v14C28,45.1,27.1,46,26,46z"/>
	</g>
	<g id="Logo-symbol_x5F_4">
		<path fill="#BFD852" d="M38,25c-0.3,0-0.7-0.1-1-0.3l-12-7c-1-0.6-1.3-1.8-0.7-2.7c0.6-1,1.8-1.3,2.7-0.7l12,7
			c1,0.6,1.3,1.8,0.7,2.7C39.4,24.6,38.7,25,38,25z"/>
	</g>
	<g id="Logo-symbol_x5F_7">
		<path fill="#31ACE2" d="M26,60c-0.3,0-0.7-0.1-1-0.3l-12-7c-1-0.6-1.3-1.8-0.7-2.7c0.6-1,1.8-1.3,2.7-0.7l12,7
			c1,0.6,1.3,1.8,0.7,2.7C27.4,59.6,26.7,60,26,60z"/>
	</g>
	<g id="Logo-symbol_x5F_3">
		<path fill="#FFCE30" d="M38,39c-1.1,0-2-0.9-2-2V23c0-1.1,0.9-2,2-2c1.1,0,2,0.9,2,2v14C40,38.1,39.1,39,38,39z"/>
	</g>
	<g id="Logo-symbol_x5F_5">
		<path fill="#6BC4A0" d="M14,25c-0.7,0-1.4-0.4-1.7-1c-0.6-1-0.2-2.2,0.7-2.7l12-7c1-0.6,2.2-0.2,2.7,0.7c0.6,1,0.2,2.2-0.7,2.7
			l-12,7C14.7,24.9,14.3,25,14,25z"/>
	</g>
	<g id="Logo-symbol_x5F_6">
		<path fill="#6BCCE3" d="M14,53c-1.1,0-2-0.9-2-2V23c0-1.1,0.9-2,2-2c1.1,0,2,0.9,2,2v28C16,52.1,15.1,53,14,53z"/>
	</g>
	<g id="Logo-symbol_x5F_9">
		<path fill="#EA6963" d="M50,46c-1.1,0-2-0.9-2-2V16c0-1.1,0.9-2,2-2c1.1,0,2,0.9,2,2v28C52,45.1,51.1,46,50,46z"/>
	</g>
	<g id="Logo-symbol_x5F_8">
		<path fill="#9A8DC3" d="M26,60c-0.7,0-1.4-0.4-1.7-1c-0.6-1-0.2-2.2,0.7-2.7l24-14c1-0.6,2.2-0.2,2.7,0.7c0.6,1,0.2,2.2-0.7,2.7
			l-24,14C26.7,59.9,26.3,60,26,60z"/>
	</g>
	<g id="Logo-symbol_x5F_10">
		<path fill="#F49A23" d="M50,18c-0.3,0-0.7-0.1-1-0.3l-24-14c-1-0.6-1.3-1.8-0.7-2.7c0.6-1,1.8-1.3,2.7-0.7l24,14
			c1,0.6,1.3,1.8,0.7,2.7C51.4,17.6,50.7,18,50,18z"/>
	</g>
	<g id="Logo-symbol_x5F_12">
		<path fill="#BFD852" d="M2,46c-1.1,0-2-0.9-2-2V16c0-1.1,0.9-2,2-2c1.1,0,2,0.9,2,2v28C4,45.1,3.1,46,2,46z"/>
	</g>
	<g id="Logo-symbol_x5F_11">
		<path fill="#FFCE30" d="M2,18c-0.7,0-1.4-0.4-1.7-1c-0.6-1-0.2-2.2,0.7-2.7l24-14c1-0.6,2.2-0.2,2.7,0.7c0.6,1,0.2,2.2-0.7,2.7
			l-24,14C2.7,17.9,2.3,18,2,18z"/>
	</g>
	<g id="Logo-symbol_x5F_dot">
		<circle fill="#EA6963" cx="26" cy="30" r="4"/>
	</g>
</g>
<text id="Logo-text" transform="matrix(1 0 0 1 69.9998 41.9001)" fill="#555" font-family="'Brandon Medium'" font-size="34">Anil</text>


    </symbol>
</svg>
