<svg version="1.1" xmlns="http://www.w3.org/2000/svg">

    <symbol id="Logo" viewBox="0 0 138 60">


    <g id="Page-1" stroke="none" stroke-width="1" fill="none" fill-rule="evenodd">
        <g id="Group" transform="translate(0.000000, 1.000000)" fill-rule="nonzero">
            <path d="M16.5448891,0.726204193 C17.0685043,-0.251639588 17.9015942,-0.23636718 18.3944118,0.738099646 L33.8088079,31.2175618 C34.3066559,32.2019752 33.7983893,33 32.6771245,33 L1.29605204,33 C0.173192548,33 -0.313275554,32.2085796 0.211024334,31.2294572 L16.5448891,0.726204193 Z" id="Shape" fill="#5FFED9"></path>
            <path d="M86.5448891,0.726204193 C87.0685043,-0.251639588 87.9015942,-0.23636718 88.3944118,0.738099646 L103.808808,31.2175618 C104.306656,32.2019752 103.798389,33 102.677124,33 L71.296052,33 C70.1731925,33 69.6867244,32.2085796 70.2110243,31.2294572 L86.5448891,0.726204193 Z" id="Shape" fill="#A0FEE9" transform="translate(86.785479, 16.478511) rotate(180.000000) translate(-86.785479, -16.478511) "></path>
            <rect id="Rectangle-path" fill="#BDFFF0" x="108" y="0" width="30" height="33" rx="2"></rect>
            <path d="M48.8695406,0.48320211 C49.7700038,-0.160541434 51.228472,-0.161593091 52.1304065,0.48320211 L66.8839696,11.0305647 C67.7844329,11.6743083 68.2310976,13.0374668 67.8803457,14.0790592 L62.1428481,31.1171064 C61.7926687,32.1569998 60.6184041,33 59.5160401,33 L41.4839069,33 C40.3833404,33 39.2078509,32.1586987 38.8570989,31.1171064 L33.1196013,14.0790592 C32.7694219,13.0391657 33.214043,11.6753599 34.1159774,11.0305647 L48.8695406,0.48320211 Z" id="Shape" fill="#7FFEE1"></path>
        </g>
    </g>
<text id="Logo-text" transform="matrix(1 0 0 1 69.9998 41.9001)" fill="#555" font-family="'Brandon Medium'" font-size="34">anil</text>


    </symbol>
</svg>
