<svg version="1.1" xmlns="http://www.w3.org/2000/svg">

    <symbol id="Logo" viewBox="0 0 260 60">


    <g id="Page-1" stroke="none" stroke-width="1" fill="none" fill-rule="evenodd">
        <g id="Group" transform="translate(0.000000, -6.000000)">
            <text id="Portfolio" fill="#555555" font-family="BrandonGrotesque-Regular, Brandon Grotesque" font-size="34" font-weight="normal">
                <tspan x="158" y="36">Portfolio</tspan>
            </text>
            <g id="Page-1" transform="translate(0.000000, 6.000000)" fill-rule="nonzero">
                <g id="Group">
                    <path d="M16.5448891,1.72620419 C17.0685043,0.748360412 17.9015942,0.76363282 18.3944118,1.73809965 L33.8088079,32.2175618 C34.3066559,33.2019752 33.7983893,34 32.6771245,34 L1.29605204,34 C0.173192548,34 -0.313275554,33.2085796 0.211024334,32.2294572 L16.5448891,1.72620419 Z" id="Shape" fill="#5FFED9"></path>
                    <path d="M86.1158471,1.68322619 C86.6394623,0.705382412 87.4725522,0.72065482 87.9653698,1.69512165 L103.379766,32.1745838 C103.877614,33.1589972 103.369347,33.957022 102.248082,33.957022 L70.86701,33.957022 C69.7441505,33.957022 69.2576824,33.1656016 69.7819823,32.1864792 L86.1158471,1.68322619 Z" id="Shape" fill="#A0FEE9" transform="translate(86.570958, 17.457022) rotate(180.000000) translate(-86.570958, -17.457022) "></path>
                    <rect id="Rectangle-path" fill="#BDFFF0" x="108" y="1" width="30" height="33" rx="2"></rect>
                    <path d="M48.8695406,1.48320211 C49.7700038,0.839458566 51.228472,0.838406909 52.1304065,1.48320211 L66.8839696,12.0305647 C67.7844329,12.6743083 68.2310976,14.0374668 67.8803457,15.0790592 L62.1428481,32.1171064 C61.7926687,33.1569998 60.6184041,34 59.5160401,34 L41.4839069,34 C40.3833404,34 39.2078509,33.1586987 38.8570989,32.1171064 L33.1196013,15.0790592 C32.7694219,14.0391657 33.214043,12.6753599 34.1159774,12.0305647 L48.8695406,1.48320211 Z" id="Shape" fill="#7FFEE1"></path>
                </g>
            </g>
        </g>
    </g>
<text id="Logo-text" transform="matrix(1 0 0 1 69.9998 41.9001)" fill="#555" font-family="'Brandon Medium'" font-size="34">anil</text>


    </symbol>
</svg>
